<?xml version="1.0" encoding="UTF-8" standalone="no"?>
<!DOCTYPE svg PUBLIC "-//W3C//DTD SVG 1.1//EN" "http://www.w3.org/Graphics/SVG/1.1/DTD/svg11.dtd">
<svg width="100%" height="100%" viewBox="0 0 81 180" version="1.1" xmlns="http://www.w3.org/2000/svg" xmlns:xlink="http://www.w3.org/1999/xlink" xml:space="preserve" xmlns:serif="http://www.serif.com/" style="fill-rule:evenodd;clip-rule:evenodd;stroke-linejoin:round;stroke-miterlimit:2;">
    <path d="M59.796,34.174C59.742,31.617 59.686,28.69 59.629,25.471C59.358,9.219 59.513,3.686 60.132,3.918C60.403,3.996 60.867,5.698 61.215,7.749C62.299,13.979 62.918,15.643 64.891,17.5L66.671,19.125L66.748,24.156C66.826,26.903 66.903,29.379 66.903,29.612C66.942,29.921 67.6,30.115 68.683,30.115L68.71,30.115C69.793,30.115 70.451,29.921 70.49,29.612C70.49,29.379 70.567,26.903 70.645,24.156L70.722,19.125L72.502,17.5C74.475,15.643 75.095,13.979 76.178,7.749C76.526,5.698 76.991,3.996 77.261,3.918C77.881,3.686 78.035,9.219 77.765,25.471C77.579,35.994 77.393,43.408 77.31,44.933C77.32,45.49 77.311,45.932 77.271,46.218C77.112,53.138 78.053,55.675 78.211,58.403C78.97,61.54 79.349,64.849 79.349,68.331C79.349,79.481 75.505,88.823 67.817,96.359C65.693,98.412 63.437,100.184 61.05,101.674C63.901,103.354 66.559,105.443 69.023,107.941C76.558,115.476 80.325,124.946 80.325,136.351C80.325,147.093 76.481,156.232 68.793,163.767C61.463,170.952 52.605,174.712 42.221,175.046L42.221,159.526C47.17,159.258 51.366,157.668 54.811,154.757L31.108,154.757L31.108,146.553L60.814,146.553C61.581,144.722 62.121,142.75 62.435,140.637L26.01,140.637L26.01,132.433L62.592,132.433C62.388,130.315 61.997,128.343 61.42,126.517L30.898,126.517L30.898,118.313L56.718,118.313C52.654,114.013 47.186,113.128 40.689,111.836C27.233,109.159 18.919,101.94 18.446,101.924C18.454,101.922 18.466,101.919 18.481,101.915C15.93,100.323 13.537,98.394 11.303,96.129C3.768,88.594 0,79.124 0,67.72C0,56.977 3.844,47.838 11.532,40.303C19.22,32.768 28.588,29 39.636,29C47.12,29 53.841,30.725 59.796,34.174ZM18.446,101.924L18.436,101.927C18.438,101.925 18.44,101.925 18.443,101.924L18.446,101.924ZM24.612,86.757C28.537,90.409 33.545,92.235 39.636,92.235C46.357,92.235 51.728,90.071 55.75,85.743C59.772,81.415 61.784,75.637 61.784,68.407C61.784,61.177 59.772,55.399 55.75,51.071C51.677,46.692 46.306,44.503 39.636,44.503C33.459,44.503 28.385,46.44 24.415,50.313L49.218,50.313L49.218,58.517L19.12,58.517C18.451,60.354 17.998,62.326 17.76,64.433L56.005,64.433L56.005,72.637L17.845,72.637C18.115,74.763 18.582,76.734 19.245,78.553L49.427,78.553L49.427,86.757L24.612,86.757Z" style="fill-rule:nonzero;"/>
</svg>
